<svg width="113" height="36" viewBox="0 0 113 36" fill="none" xmlns="http://www.w3.org/2000/svg">
<path d="M51.8942 6.86409V19.9991C51.8942 20.905 51.7433 21.7303 51.4413 22.4751C51.1595 23.2199 50.7468 23.854 50.2033 24.3774C49.6799 24.9008 49.0357 25.3135 48.2708 25.6154C47.5058 25.8973 46.6503 26.0382 45.7042 26.0382C44.758 26.0382 43.9025 25.8973 43.1376 25.6154C42.3726 25.3135 41.7184 24.9008 41.1749 24.3774C40.6515 23.854 40.2388 23.2199 39.9368 22.4751C39.655 21.7303 39.5141 20.905 39.5141 19.9991H43.1376C43.1376 20.7641 43.3691 21.3881 43.8321 21.8712C44.3152 22.3342 44.9392 22.5657 45.7042 22.5657C46.4691 22.5657 47.0831 22.3342 47.5461 21.8712C48.0292 21.3881 48.2708 20.7641 48.2708 19.9991V6.86409H51.8942ZM60.5105 26.0382C59.6852 26.0382 58.9303 25.9073 58.2459 25.6456C57.5615 25.3638 56.9676 24.9713 56.4644 24.468C55.9812 23.9446 55.5988 23.3206 55.3169 22.5959C55.0552 21.8712 54.9244 21.0559 54.9244 20.1501V11.9973H58.3969V19.6971C58.3969 20.603 58.6586 21.3378 59.1819 21.9014C59.7255 22.4449 60.42 22.7167 61.2654 22.7167C62.1109 22.7167 62.7953 22.4449 63.3187 21.9014C63.8622 21.3378 64.134 20.603 64.134 19.6971V11.9973H67.6065V25.8872H65.0399L64.4359 24.5284C64.0937 24.8102 63.7213 25.0619 63.3187 25.2833C62.9765 25.4846 62.5638 25.6658 62.0807 25.8268C61.5976 25.9677 61.0742 26.0382 60.5105 26.0382ZM74.4087 25.8872H70.9362V6.86409H74.4087V25.8872ZM79.983 18.9423C79.983 20.0897 80.3152 21.0056 80.9795 21.69C81.6438 22.3745 82.4691 22.7167 83.4555 22.7167C84.4419 22.7167 85.2672 22.3745 85.9315 21.69C86.5958 21.0056 86.928 20.0897 86.928 18.9423C86.928 17.7948 86.5958 16.8789 85.9315 16.1945C85.2672 15.51 84.4419 15.1678 83.4555 15.1678C82.4691 15.1678 81.6438 15.51 80.9795 16.1945C80.3152 16.8789 79.983 17.7948 79.983 18.9423ZM90.4005 18.9423C90.4005 19.9286 90.2092 20.8546 89.8267 21.7202C89.4644 22.5657 88.9611 23.3105 88.317 23.9547C87.6929 24.5989 86.9582 25.1122 86.1127 25.4947C85.2874 25.857 84.4016 26.0382 83.4555 26.0382C82.5094 26.0382 81.6136 25.857 80.7681 25.4947C79.9428 25.1122 79.208 24.5989 78.5639 23.9547C77.9398 23.3105 77.4366 22.5657 77.0541 21.7202C76.6917 20.8546 76.5106 19.9286 76.5106 18.9423C76.5106 17.9559 76.6917 17.04 77.0541 16.1945C77.4366 15.3289 77.9398 14.574 78.5639 13.9298C79.208 13.2857 79.9428 12.7824 80.7681 12.4201C81.6136 12.0376 82.5094 11.8463 83.4555 11.8463C84.4016 11.8463 85.2874 12.0376 86.1127 12.4201C86.9582 12.7824 87.6929 13.2857 88.317 13.9298C88.9611 14.574 89.4644 15.3289 89.8267 16.1945C90.2092 17.04 90.4005 17.9559 90.4005 18.9423Z" fill="#016147"/>
<path fill-rule="evenodd" clip-rule="evenodd" d="M13.4821 2.89062C7.1733 2.91229 3.83043 3.10666 2.03995 4.8504C1.04636 5.81805 0.366479 7.06195 0.0884933 8.42074C-0.475287 11.1765 1.67447 14.5276 5.97398 21.2299C9.7144 27.0606 11.5846 29.976 14.0946 30.6946C15.3394 31.051 16.6592 31.051 17.9039 30.6946C20.2881 30.012 22.095 27.3473 25.4759 22.0847L13.4821 2.89062Z" fill="#016147"/>
<path fill-rule="evenodd" clip-rule="evenodd" d="M27.6538 18.6811L17.7858 2.88892C24.5694 2.89986 28.1002 3.04062 29.9585 4.85048C30.9521 5.81814 31.632 7.06204 31.91 8.42083C32.3973 10.8028 30.8572 13.6297 27.6538 18.6811Z" fill="#B5FF00"/>
</svg>
